<svg width="22" height="22" viewBox="0 0 22 22" fill="none" xmlns="http://www.w3.org/2000/svg">
<path d="M16.5689 1.42432L20.3942 5.41182V20.5753H6.10449V20.6248H20.443V5.462L16.5689 1.42432Z" fill="#909090"/>
<path d="M16.5215 1.375H6.05566V20.5755H20.3942V5.41269L16.5215 1.375Z" fill="#F4F4F4"/>
<path d="M5.95074 2.40625H1.55762V7.09981H15.3764V2.40625H5.95074Z" fill="#7A7B7C"/>
<path d="M15.4494 7.02024H1.64648V2.32324H15.4494V7.02024Z" fill="#DD2025"/>
<path d="M6.22278 3.11733H5.32422V6.41733H6.03097V5.30427L6.18703 5.3132C6.33872 5.31111 6.48903 5.28393 6.63184 5.23277C6.7574 5.19014 6.87279 5.12203 6.97078 5.0327C7.07127 4.94845 7.15022 4.84145 7.20109 4.72058C7.2707 4.52032 7.29535 4.30719 7.27328 4.09633C7.26936 3.94567 7.24294 3.79643 7.19491 3.65358C7.15162 3.55032 7.08725 3.45724 7.00592 3.38029C6.92459 3.30334 6.82809 3.24422 6.72259 3.2067C6.63165 3.17302 6.53739 3.14905 6.44141 3.1352C6.3689 3.1234 6.29556 3.11742 6.22209 3.11733M6.09216 4.69445H6.03097V3.67695H6.16366C6.22222 3.67273 6.28098 3.68172 6.3356 3.70326C6.39022 3.7248 6.4393 3.75833 6.47922 3.80139C6.56194 3.91209 6.60613 4.04683 6.60503 4.18502C6.60503 4.35414 6.60503 4.50745 6.45241 4.61539C6.34248 4.67594 6.2173 4.70386 6.09216 4.69445ZM8.61597 3.10839C8.53966 3.10839 8.46541 3.11389 8.41316 3.11595L8.24953 3.12008H7.71328V6.42008H8.34441C8.58557 6.42628 8.82563 6.38542 9.05116 6.29977C9.23274 6.22806 9.39346 6.112 9.51866 5.9622C9.64134 5.81175 9.72894 5.63584 9.77509 5.44727C9.82932 5.23409 9.85566 5.01478 9.85347 4.79483C9.86693 4.53506 9.84682 4.27464 9.79366 4.02002C9.74276 3.8328 9.64856 3.66018 9.51866 3.51608C9.41677 3.39955 9.29143 3.30585 9.15084 3.24108C9.03041 3.18525 8.90368 3.14416 8.77341 3.1187C8.7216 3.11021 8.66915 3.1063 8.61666 3.10702M8.49153 5.8137H8.42278V3.7072H8.43172C8.57346 3.69081 8.71688 3.71639 8.84422 3.78077C8.93749 3.85524 9.01349 3.94907 9.06697 4.05577C9.12469 4.16806 9.15796 4.29131 9.16459 4.41739C9.17078 4.56864 9.16459 4.69239 9.16459 4.79483C9.16714 4.91282 9.15955 5.03082 9.14191 5.14752C9.12028 5.26719 9.08113 5.38301 9.02572 5.49127C8.96312 5.59222 8.87763 5.67701 8.77616 5.73877C8.6914 5.79377 8.5909 5.81938 8.49016 5.81164M11.9827 3.12008H10.312V6.42008H11.0188V5.11108H11.9125V4.49783H11.0188V3.73333H11.9813V3.12008" fill="#464648"/>
<path d="M14.9745 13.9253C14.9745 13.9253 17.1662 13.5279 17.1662 14.2766C17.1662 15.0253 15.8084 14.7207 14.9745 13.9253ZM13.354 13.9824C13.0058 14.0591 12.6664 14.1718 12.3413 14.3185L12.6163 13.6998C12.8913 13.081 13.1767 12.2375 13.1767 12.2375C13.504 12.7903 13.8859 13.309 14.3165 13.7857C13.9923 13.834 13.671 13.9001 13.354 13.9837V13.9824ZM12.4864 9.5136C12.4864 8.86116 12.6975 8.6831 12.8618 8.6831C13.0261 8.6831 13.211 8.76216 13.2172 9.32866C13.1636 9.89829 13.0443 10.4598 12.8618 11.002C12.6109 10.5471 12.4813 10.0352 12.4857 9.51566L12.4864 9.5136ZM9.29022 16.7434C8.61784 16.3412 10.7003 15.103 11.0777 15.0631C11.0757 15.0638 9.99422 17.1641 9.29022 16.7434ZM17.8063 14.3653C17.7994 14.2965 17.7375 13.5355 16.3832 13.5678C15.8186 13.5579 15.2543 13.5977 14.6967 13.6867C14.1563 13.1427 13.6911 12.5288 13.3135 11.8614C13.5512 11.1734 13.6953 10.4566 13.7418 9.73016C13.7218 8.90516 13.5245 8.43216 12.892 8.43904C12.2595 8.44591 12.1674 8.99935 12.2506 9.82298C12.332 10.3765 12.4857 10.9169 12.7078 11.4304C12.7078 11.4304 12.4156 12.3399 12.0292 13.2447C11.6428 14.1494 11.3788 14.6238 11.3788 14.6238C10.7069 14.8423 10.0743 15.1672 9.50541 15.5863C8.93891 16.1136 8.70859 16.5185 9.00697 16.9235C9.26409 17.2727 10.164 17.3518 10.9684 16.2979C11.3951 15.753 11.7855 15.1806 12.1372 14.5846C12.1372 14.5846 13.3637 14.2484 13.7452 14.1563C14.1268 14.0642 14.5881 13.9913 14.5881 13.9913C14.5881 13.9913 15.708 15.1181 16.7881 15.0782C17.8682 15.0384 17.8159 14.4327 17.809 14.3667" fill="#DD2025"/>
<path d="M16.4688 1.42773V5.46542H20.3414L16.4688 1.42773Z" fill="#909090"/>
<path d="M16.5215 1.375V5.41269H20.3942L16.5215 1.375Z" fill="#F4F4F4"/>
<path d="M6.17005 3.06411H5.27148V6.36411H5.98098V5.25173L6.13773 5.26067C6.28943 5.25858 6.43973 5.2314 6.58255 5.18023C6.7081 5.1376 6.82349 5.06949 6.92148 4.98017C7.02122 4.89568 7.09945 4.7887 7.14973 4.66804C7.21934 4.46778 7.24399 4.25465 7.22192 4.04379C7.218 3.89313 7.19158 3.7439 7.14355 3.60104C7.10026 3.49779 7.03589 3.40471 6.95456 3.32776C6.87323 3.25081 6.77673 3.19168 6.67123 3.15417C6.57987 3.12016 6.48515 3.09596 6.38867 3.08198C6.31616 3.07017 6.24282 3.0642 6.16936 3.06411M6.03942 4.64123H5.97823V3.62373H6.11161C6.17017 3.61951 6.22893 3.6285 6.28355 3.65004C6.33817 3.67158 6.38725 3.70511 6.42717 3.74817C6.50989 3.85887 6.55408 3.99361 6.55298 4.13179C6.55298 4.30092 6.55298 4.45423 6.40036 4.56217C6.29043 4.62272 6.16526 4.64995 6.04011 4.64054M8.56323 3.05517C8.48692 3.05517 8.41267 3.06067 8.36042 3.06273L8.19886 3.06686H7.66261V6.36686H8.29373C8.5349 6.37306 8.77496 6.33219 9.00048 6.24654C9.18207 6.17483 9.34279 6.05878 9.46798 5.90898C9.59067 5.75852 9.67827 5.58261 9.72442 5.39404C9.77865 5.18087 9.80499 4.96156 9.8028 4.74161C9.81625 4.48184 9.79615 4.22142 9.74298 3.96679C9.69209 3.77958 9.59789 3.60696 9.46798 3.46286C9.36609 3.34633 9.24076 3.25262 9.10017 3.18786C8.97974 3.13203 8.85301 3.09094 8.72273 3.06548C8.67093 3.05699 8.61848 3.05308 8.56598 3.05379M8.44086 5.76048H8.37211V3.65398H8.38105C8.52278 3.63759 8.66621 3.66317 8.79355 3.72754C8.88682 3.80202 8.96281 3.89584 9.0163 4.00254C9.07402 4.11484 9.10729 4.23808 9.11392 4.36417C9.12011 4.51542 9.11392 4.63917 9.11392 4.74161C9.11646 4.8596 9.10887 4.9776 9.09123 5.09429C9.06961 5.21396 9.03046 5.32979 8.97505 5.43804C8.91245 5.539 8.82696 5.62379 8.72548 5.68554C8.64072 5.74055 8.54023 5.76615 8.43948 5.75842M11.9299 3.06686H10.2593V6.36686H10.966V5.05786H11.8598V4.44461H10.966V3.68011H11.9285V3.06686" fill="white"/>
</svg>
